PathFileType	4	(X/Y/Z)	./resultDataOpenSim/trcMotMarkerGrf/sub10/qtm-12-07.trc
DataRate	CameraRate	NumFrames	NumMarkers	Units	OrigDataRate	OrigDataStartFrame	OrigNumFrames
250.000000	250.000000	11	24	m	250.000000	252	503
Frame#	Time	L.Toe.Tip			R.Toe.Tip			L.Ankle.Lat			R.Ankle.Lat			L.Ankle.Med			R.Ankle.Med			L.Heel			R.Heel			L.Knee.Lat			R.Knee.Lat			L.Knee.Med			R.Knee.Med			L.Thigh.Upper			R.Thigh.Upper			L.ASIS			R.ASIS			V.Sacral			L.Acromium			R.Acromium			C7			L.Elbow			R.Elbow			L.Wrist.Lat			R.Wrist.Lat
		X1	Y1	Z1	X2	Y2	Z2	X3	Y3	Z3	X4	Y4	Z4	X5	Y5	Z5	X6	Y6	Z6	X7	Y7	Z7	X8	Y8	Z8	X9	Y9	Z9	X10	Y10	Z10	X11	Y11	Z11	X12	Y12	Z12	X13	Y13	Z13	X14	Y14	Z14	X15	Y15	Z15	X16	Y16	Z16	X17	Y17	Z17	X18	Y18	Z18	X19	Y19	Z19	X20	Y20	Z20	X21	Y21	Z21	X22	Y22	Z22	X23	Y23	Z23	X24	Y24	Z24

252	1.004	0.039034021	0.017050377	-0.074713784	0.43206751	0.092814468	0.1055439	-0.093243887	0.054667349	-0.10197202	0.28938742	0.10173875	0.10395591	-0.084592441	0.075860913	-0.019116391	0.32984159	0.13153351	0.028349464	-0.16169506	0.032388569	-0.059998078	0.25619109	0.072969026	0.044760625	0.017917905	0.42646917	-0.13319153	0.32525202	0.50022337	0.14424385	0.011792735	0.40589125	-0.011121988	0.35940447	0.52148952	0.022052033	0.10760139	0.81335075	-0.19076154	0.096706346	0.84036704	0.1895984	0.16687167	0.92173265	-0.1246412	0.16531513	0.93282288	0.12099065	-0.032082582	0.94161769	-0.0050675077	0.1455894	1.3947537	-0.15586668	0.080836758	1.3951085	0.16307676	0.031330304	1.4258448	-0.019553439	0.10236781	1.05733	-0.25843396	-0.07664803	1.0845703	0.19726023	0.29617294	0.91555336	-0.3207026	0.0043478875	0.86653883	0.2849778
253	1.008	0.039067072	0.017048185	-0.074774461	0.45309808	0.094534044	0.10530099	-0.093082547	0.055426315	-0.10168872	0.3100701	0.098782785	0.10366638	-0.083956024	0.076581798	-0.018869487	0.34972228	0.13025157	0.02862316	-0.16149303	0.033503089	-0.059612359	0.27776318	0.069397433	0.044791706	0.018598294	0.42704542	-0.13323034	0.33188101	0.49959059	0.14436176	0.013311718	0.40625724	-0.0112464	0.3646154	0.52081184	0.022238969	0.11078798	0.81325427	-0.19092551	0.10413462	0.8410278	0.19030666	0.1715616	0.92116766	-0.12502066	0.17195922	0.93283944	0.12100448	-0.026934375	0.94154235	-0.003509368	0.15117364	1.394617	-0.15592683	0.086664311	1.3946922	0.16307065	0.037025073	1.425592	-0.019476159	0.11035337	1.0567197	-0.25889829	-0.072321854	1.0852386	0.19700805	0.30663771	0.91806909	-0.32033548	0.0057134668	0.86631051	0.28541515
254	1.012	0.039081075	0.017049219	-0.074824264	0.47392189	0.096395889	0.10498899	-0.092914085	0.05619942	-0.10140841	0.330721	0.096152534	0.10353545	-0.083309586	0.077345451	-0.018507407	0.36940248	0.12928659	0.02901106	-0.16128639	0.034634716	-0.059210666	0.29918099	0.066266469	0.044849058	0.019403638	0.42760671	-0.13322229	0.33826137	0.4986775	0.14453723	0.014975094	0.40655306	-0.011354892	0.36971515	0.51978506	0.022436878	0.11427469	0.81318633	-0.19085941	0.1118116	0.84162372	0.19109284	0.176229	0.92058382	-0.12536124	0.17864983	0.93279335	0.12102031	-0.021743408	0.94137534	-0.0019050664	0.15677121	1.3944079	-0.15600193	0.092488871	1.3942283	0.16306149	0.042719859	1.4252861	-0.01940003	0.1182792	1.0560582	-0.25926577	-0.068000486	1.0858504	0.19692367	0.31704604	0.92057444	-0.31988958	0.0070638776	0.86606746	0.28577563
255	1.016	0.039092084	0.017050589	-0.074868937	0.49448996	0.098414743	0.10457793	-0.092737037	0.056978262	-0.10112056	0.35123562	0.093940905	0.10363294	-0.082655231	0.078134559	-0.018065777	0.38879678	0.1286344	0.029502016	-0.16106857	0.035780418	-0.058784904	0.32036471	0.063569276	0.04499118	0.02035258	0.42814529	-0.13316188	0.34440671	0.4974742	0.14474484	0.016749946	0.40679562	-0.011399822	0.37474453	0.51841829	0.022642452	0.1178157	0.81304433	-0.19074443	0.11959646	0.84212257	0.19187965	0.18087182	0.91998685	-0.12566568	0.18539741	0.93268163	0.12103286	-0.016260146	0.94107919	-0.00037852049	0.1623732	1.3941323	-0.15608816	0.098317813	1.3937199	0.16305407	0.048406854	1.4249309	-0.019318369	0.12608997	1.0553433	-0.25943328	-0.063558802	1.0863666	0.1969745	0.32739163	0.92306256	-0.31936756	0.0083395375	0.86581763	0.28604735
256	1.02	0.039112291	0.017049334	-0.074907417	0.51472511	0.10063773	0.10406111	-0.092527112	0.057754445	-0.10082796	0.37148616	0.092177499	0.1039445	-0.081908428	0.078915881	-0.017584653	0.4078267	0.12826935	0.030040294	-0.16082993	0.036938488	-0.058338583	0.34123675	0.061300514	0.045262609	0.02145848	0.42864767	-0.13305543	0.35036071	0.49599121	0.14498008	0.018638123	0.40700049	-0.01136884	0.37973876	0.51672046	0.022850359	0.12121793	0.81279676	-0.19075751	0.12711521	0.84243784	0.19247548	0.18549357	0.91937856	-0.12594306	0.19220991	0.93250023	0.12104377	-0.010343612	0.94066284	0.0010058836	0.16795667	1.3938037	-0.15616934	0.10415304	1.3931714	0.16305277	0.054082908	1.424522	-0.019221152	0.13383594	1.0545813	-0.25953327	-0.058925006	1.0867789	0.19704764	0.33765888	0.92552586	-0.31877791	0.0095351732	0.86556444	0.2862381
257	1.024	0.039147207	0.01704494	-0.074936281	0.53455254	0.10310975	0.10344039	-0.092236896	0.058521002	-0.10055866	0.39136501	0.090840209	0.10442317	-0.081063422	0.079675249	-0.017108754	0.42642967	0.12816656	0.030595832	-0.16056324	0.038109251	-0.057888834	0.36172701	0.059454503	0.04568385	0.022728359	0.42910517	-0.13291511	0.3561694	0.49424998	0.14524879	0.020657155	0.40716828	-0.011284701	0.38470934	0.51470264	0.023055494	0.12455474	0.81249146	-0.19088616	0.13420237	0.84252398	0.19279549	0.19009924	0.91876003	-0.12620086	0.19910621	0.93225379	0.12105902	-0.0041196362	0.94018303	0.0023319169	0.17350593	1.3934275	-0.15622497	0.10999402	1.3925876	0.16305701	0.059751984	1.4240569	-0.019108054	0.1415742	1.0537827	-0.2596839	-0.054117644	1.0871053	0.19707261	0.34782915	0.92796512	-0.31813578	0.010733951	0.86530125	0.28638583
258	1.028	0.039193908	0.017038568	-0.074955875	0.55392432	0.10585192	0.10271119	-0.091828247	0.059275174	-0.10034253	0.41081857	0.089882566	0.10501677	-0.080221917	0.080425211	-0.016679674	0.44455948	0.12831923	0.031175605	-0.16026716	0.039297428	-0.057456571	0.38176655	0.058016757	0.046257146	0.024170804	0.42951823	-0.13275417	0.361857	0.49227099	0.14553995	0.022821486	0.40729207	-0.011170146	0.38964653	0.51238591	0.023259154	0.12795625	0.81219393	-0.19104202	0.14106866	0.84243323	0.19294583	0.19469345	0.9181328	-0.12644393	0.20611101	0.9319551	0.12108362	0.0020849896	0.93970529	0.00377709	0.17902653	1.3929945	-0.15624384	0.11583403	1.391972	0.16306864	0.065419381	1.4235374	-0.018989767	0.14933969	1.052969	-0.25985504	-0.049201691	1.0873677	0.19704433	0.35789037	0.93038565	-0.31745589	0.012072886	0.86502153	0.28653096
259	1.032	0.039243663	0.017030757	-0.074971473	0.57280492	0.1088654	0.10186496	-0.091336476	0.060027628	-0.10015898	0.42981889	0.089266655	0.1056914	-0.07945289	0.081171039	-0.016308933	0.46217168	0.12873021	0.031788225	-0.15994914	0.040510516	-0.057038147	0.40128906	0.056955984	0.046977674	0.025792966	0.42989142	-0.13258069	0.36745117	0.49009769	0.14584379	0.025131845	0.40736993	-0.011035352	0.39454341	0.50980494	0.023464192	0.13143333	0.81193007	-0.19119196	0.14803633	0.84226032	0.19309165	0.19928015	0.91749894	-0.12667572	0.21321845	0.93161488	0.12110407	0.0080948091	0.93924717	0.0054213447	0.18453753	1.3924935	-0.15623494	0.12166166	1.3913252	0.16309185	0.071085464	1.4229612	-0.018875997	0.15717063	1.0521829	-0.25993318	-0.044240648	1.0875787	0.19698199	0.36784895	0.93279033	-0.31673636	0.013639364	0.86473535	0.28668564
260	1.036	0.039290421	0.017022257	-0.074988173	0.59113292	0.11214869	0.10091112	-0.090865974	0.060799959	-0.099935972	0.44832787	0.088977055	0.10644554	-0.078731444	0.081895364	-0.015968384	0.47922011	0.12938865	0.032437472	-0.15962219	0.041754305	-0.056580962	0.42023859	0.056229539	0.047839741	0.027587916	0.4302287	-0.13239816	0.37301885	0.48781043	0.14617941	0.027581458	0.40740626	-0.010881326	0.39942038	0.50700779	0.023661802	0.13492722	0.81168822	-0.19135158	0.15527301	0.84205452	0.19331982	0.20386297	0.91686076	-0.12689944	0.22037756	0.93123197	0.12107842	0.014026866	0.93877864	0.0071849636	0.19005058	1.3919277	-0.15621845	0.1274765	1.3906469	0.16312404	0.07674529	1.4223236	-0.018766621	0.16508834	1.0514713	-0.25986612	-0.039276618	1.0877438	0.19689855	0.37772838	0.93517938	-0.31595215	0.015402413	0.86445616	0.28683263
261	1.04	0.039334475	0.017016886	-0.075006175	0.6088204	0.11569541	0.099903079	-0.090482706	0.0616064	-0.099626857	0.46630886	0.089002633	0.10728538	-0.078002127	0.082586088	-0.01561628	0.49566106	0.13026571	0.033122177	-0.15929249	0.043033449	-0.056010675	0.43857272	0.05579141	0.048835687	0.029528692	0.43053307	-0.13221732	0.37864754	0.48549448	0.14657811	0.030168756	0.40740719	-0.010704486	0.40432844	0.50405432	0.023828931	0.13840998	0.81145715	-0.19152384	0.16274746	0.84179722	0.19361109	0.20844548	0.91622055	-0.12711845	0.2275346	0.93079461	0.12096174	0.02002807	0.93828238	0.0089829337	0.19556244	1.3913135	-0.1562053	0.13329447	1.3899401	0.16315935	0.082393165	1.4216274	-0.018652055	0.17303764	1.0508337	-0.25978759	-0.034325866	1.0878689	0.19679761	0.38754666	0.93755206	-0.31507744	0.01726561	0.86418001	0.28694364
262	1.044	0.039376731	0.017020806	-0.075018474	0.62580663	0.1194651	0.09892175	-0.090155363	0.062446095	-0.099251163	0.48374881	0.089317364	0.10819871	-0.077248439	0.083254956	-0.015238	0.51145409	0.13133016	0.033830398	-0.15894928	0.044354186	-0.055321903	0.45626283	0.055592204	0.049959378	0.031586655	0.43080596	-0.13205474	0.38439135	0.48320166	0.14704744	0.032895766	0.40738056	-0.010503643	0.40932084	0.50100774	0.023941753	0.141911	0.81126356	-0.19167573	0.17033684	0.84144784	0.19389475	0.21303128	0.9155806	-0.12733632	0.23467925	0.93029303	0.1207387	0.026071629	0.93778125	0.010835676	0.20106843	1.3906658	-0.15618949	0.13913146	1.3892114	0.16320058	0.088028821	1.420884	-0.01851991	0.18089473	1.0501905	-0.25995184	-0.029379765	1.0879609	0.19667836	0.39730056	0.93990795	-0.31411206	0.019160918	0.86389229	0.28699662
